# xmcd CD database file
#
# Track frame offsets:
#	150
#	14125
#	28230
#	43782
#	61552
#	77947
#	91557
#	105035
#	127762
#	144165
#	166305
#	204405
#	218337
#	237647
#	248280
#	258632
#
# Disc length: 3630 seconds
#
# Revision: 0
# Processed by: cddbd v1.5.2PL0 Copyright (c) Steve Scherf et al.
# Submitted via: CDex 1.51
#
DISCID=c20e2c10
DTITLE=King Fisher - King Fisher and his All-Stars
DYEAR=1995
DGENRE=Jazz
TTITLE0=Jazzology
TTITLE1=Buddy Bolden's Blues
TTITLE2=Funeral March of a Marionette
TTITLE3=Someday, Sweetheart
TTITLE4=At the Jazz Band Ball
TTITLE5=Mamphis Blues
TTITLE6=I'm Comin' Virginia
TTITLE7=Rosetta
TTITLE8=Ode to Clinton
TTITLE9=Beale St. Blues
TTITLE10=What's I'm Gotcha
TTITLE11=Meadowlands
TTITLE12=Aunt Hagar's Blues
TTITLE13=Slime Mould Stomp
TTITLE14=Penn Beach Blues
TTITLE15=The Albatross
EXTD=YEAR: 1995
EXTT0=
EXTT1=
EXTT2=
EXTT3=
EXTT4=
EXTT5=
EXTT6=
EXTT7=
EXTT8=
EXTT9=
EXTT10=
EXTT11=
EXTT12=
EXTT13=
EXTT14=
EXTT15=
PLAYORDER=
